<svg id="horiz" xmlns="http://www.w3.org/2000/svg" viewBox="0 0 763 219"><defs><style>.cls-1{fill:#0f1832;}.cls-2{fill:#fff;}.cls-3{fill:#00bddc;}</style></defs><title>br logo diap</title><path class="cls-1" d="M61,172.4V141.1A18.1,18.1,0,0,1,79.1,123h2.5l1.3.2.6.2,1.3.3.5.2,1.2.5.4.2,1.3.7.3.2,1.3.9H90l1.4,1.1h0l1.3,1.3,12.8-12.8-1.2-1.3h-.1l-1.2-1.2c-.1,0-.1,0-.1-.1l-1.3-1h-.2l-1.2-1H100l-1.3-.9-.3-.2-1.2-.7-.3-.2-1.3-.7-.4-.2-1.2-.5-.4-.3-1.2-.4-.5-.2-1.2-.5h-.6l-1.1-.4-.6-.2-1.2-.2-.6-.2-1.2-.2h-.7l-1.1-.2H79.1a36.3,36.3,0,0,0-36.2,36.2v21.4l-.9-.8a67,67,0,0,0,26.1,13.8h-.3A29.4,29.4,0,0,1,61,172.4Z"/><path class="cls-2" d="M86.2,178H80.1l-2.4-.3h-.3l-2.7-.4a31.5,31.5,0,0,0,4.4.3,36.2,36.2,0,0,0,26.5-60.8h-.1l-1.2-1.3h-.1l-1.2-1.2c-.1,0-.1,0-.1-.1l-1.3-1h-.2l-1.2-1H100l-1.3-.9-.3-.2-1.2-.7-.3-.2-1.3-.7-.4-.2-1.2-.5-.4-.3-1.2-.4-.5-.2-1.2-.5h-.6l-1.1-.4-.6-.2-1.2-.2-.6-.2-1.2-.2h-.7l-1.1-.2H79.1A35.8,35.8,0,0,0,61,109.8v-41H42.9v93.7l-.9-.8-1.1-.9-1.4-1.3-1.1-1-.9-.9L35.9,156l-.8-.9-1.5-1.8-.6-.8a10.1,10.1,0,0,1-1.3-1.6L31,150l-1.2-1.7a3.5,3.5,0,0,1-.5-.8l-1.4-2.1-.4-.7-1.3-2.3a1.6,1.6,0,0,1-.4-.7l-1.2-2.4-.2-.4a25.6,25.6,0,0,1-1.1-2.4c-.1-.2-.2-.3-.2-.5L22,133.4a1.4,1.4,0,0,0-.2-.6l-.9-2.7c-.1-.2-.1-.4-.2-.6s-.5-1.8-.8-2.8a.4.4,0,0,0-.1-.3l-.6-3v-.2c-.2-1-.4-2-.5-3a4.3,4.3,0,0,1-.1-.5c-.1-.9-.3-1.9-.4-2.9v-.6l-.3-3v-.5c0-1-.1-2.1-.1-3.2A68.5,68.5,0,0,1,86.2,41h4a67.7,67.7,0,0,1,46.4,22l.3.3,1.1,1.2a14.7,14.7,0,0,1,1,1.3l.3.3a69.2,69.2,0,0,1,14,29.4h0a59.7,59.7,0,0,1,.9,6.1c.2,1,.2,2,.3,3s.2,3.1.2,4.6-.1,2.5-.1,3.8a57,57,0,0,1-.6,5.8c-.1.4-.1.9-.2,1.4A68.5,68.5,0,0,1,86.2,178Zm-7.1-18.8a18.1,18.1,0,0,0,18.1-18.1,17.9,17.9,0,0,0-4.5-11.9l-1.3-1.3h0L90,126.7h-.2l-1.3-.9-.3-.2-1.3-.7-.4-.2-1.2-.5-.5-.2-1.3-.3-.6-.2-1.3-.2H79.1a18.1,18.1,0,0,0,0,36.2Zm93.4-17.4h13.8V135h.2c3.2,5.9,9.6,8.2,17.4,8.2,10.5,0,21.9-8.5,21.9-27.9s-11.4-27.8-21.9-27.8c-6.5,0-13.1,2.4-16.7,7.8H187V68.7H172.5Zm38.8-26.4c0,8.8-3.8,16.9-12.4,16.9s-12.4-8.1-12.4-16.9,3.8-17,12.4-17S211.3,106.5,211.3,115.4Zm22.1,26.4h14.5V68.7H233.4Zm22.1-26.4c0,16.8,10.7,27.8,27.3,27.8s27.4-11,27.4-27.8-10.8-27.9-27.4-27.9S255.5,98.5,255.5,115.4Zm14.5,0c0-8.5,3-17,12.8-17s12.9,8.5,12.9,17-3,16.9-12.9,16.9S270,123.8,270,115.4Zm46.8,0c0,16.8,10.7,27.8,27.3,27.8s27.4-11,27.4-27.8-10.7-27.9-27.4-27.9S316.8,98.5,316.8,115.4Zm14.5,0c0-8.5,3-17,12.8-17s12.9,8.5,12.9,17-3,16.9-12.9,16.9S331.3,123.8,331.3,115.4Zm47.8,26.4h14.5V111.1c0-10.3,7-12.2,9.8-12.2,9.3,0,8.8,7.1,8.8,13.2v29.7h14.6V112.3c0-6.6,1.5-13.4,9.7-13.4s8.9,5.9,8.9,12.9v30h14.5V106.4c0-13.7-8.1-18.9-19.3-18.9a19.3,19.3,0,0,0-16,8.8c-2.8-6.4-8.8-8.8-15.4-8.8A18.9,18.9,0,0,0,393,96.1h-.2V88.9H379.1Z"/><path class="cls-3" d="M92.7,129.2l12.8-12.8h.1a36.2,36.2,0,0,1-26.5,60.8,31.5,31.5,0,0,1-4.4-.3,57.3,57.3,0,0,1-6.9-1.6,29.4,29.4,0,0,1-6.8-3V141.1a18.1,18.1,0,0,0,36.2,0A17.9,17.9,0,0,0,92.7,129.2ZM61,109.8v-41H42.9v72.3A36.1,36.1,0,0,1,61,109.8Zm409.7,32h14.5V117.9c0-9.3,3.7-16.9,14.3-16.9a26.2,26.2,0,0,1,5.2.5V88a10.6,10.6,0,0,0-3.1-.5c-7.1,0-14.3,4.6-16.9,11.2h-.2V88.9H470.7Zm89.4-22.9c1-16.3-7.7-31.4-25.7-31.4-16,0-27,12-27,27.9s10.4,27.8,27,27.8c12,0,20.7-5.3,24.8-17.8H546.4c-.9,3.3-5.6,6.9-11.5,6.9-8,0-12.5-4.2-12.9-13.4ZM522,109.7c.2-4.1,2.8-11.3,12-11.3,7.1,0,10.3,3.9,11.6,11.3Zm59.7-4.5c.5-5.8,4.1-8,9.6-8s9.4.9,9.4,7.1-8.3,5.7-17.2,7-18,4.1-18,16.1,8,15.8,18,15.8c6.5,0,13.2-1.7,17.8-6.5a17.9,17.9,0,0,0,1.1,5.1h14.7c-1.3-2.2-1.9-7-1.9-11.8V102.5c0-12.7-12.6-15-23.2-15s-24,4.1-24.8,17.7Zm19,16.1c0,3.2-.4,12.2-11.8,12.2-4.7,0-8.9-1.3-8.9-6.7s4.1-6.9,8.6-7.8,9.7-.9,12.1-3.1Zm73-13.8c-.9-13.5-12.4-20-24.9-20-17.2,0-27,12.1-27,28.6s10.8,27.1,26.7,27.1c13.9,0,23.6-7.7,25.5-21.7H660c-.9,6.5-4.8,10.8-11.6,10.8-9.1,0-12.1-9.1-12.1-16.7s3.1-17.2,12.4-17.2c6.1,0,9.8,3.2,10.8,9.1Zm6.5,34.3h14.6V114.1c0-10.8,3.3-15.2,11.2-15.2s9.3,4.3,9.3,13v29.9h14.5V109.3c0-13.1-3.8-21.8-19.3-21.8a18.3,18.3,0,0,0-15.4,8.8h-.3V68.7H680.2Zm57.7-5.9h-4.5v.7h1.8v4.9h.9v-4.9h1.8Zm7.4,0h-1.5l-1.6,4.3-1.7-4.3H739v5.6h1v-4.7h0l1.9,4.7h.5l1.9-4.7h0v4.7h1Z"/></svg>