<?xml version="1.0" encoding="utf-8"?>
<!-- Generator: Adobe Illustrator 22.1.0, SVG Export Plug-In . SVG Version: 6.00 Build 0)  -->
<svg version="1.1" id="Layer_1" xmlns="http://www.w3.org/2000/svg" xmlns:xlink="http://www.w3.org/1999/xlink" x="0px" y="0px"
	 viewBox="0 0 360 188" style="enable-background:new 0 0 360 188;" xml:space="preserve">
<style type="text/css">
	.st0{fill:url(#SVGID_1_);}
	.st1{fill:url(#SVGID_2_);}
	.st2{fill:url(#SVGID_3_);fill-opacity:0.8;}
</style>
<g>
	
		<linearGradient id="SVGID_1_" gradientUnits="userSpaceOnUse" x1="29.9178" y1="243.7114" x2="30.9216" y2="244.7114" gradientTransform="matrix(360 0 0 -191.305 -10770 46814.7266)">
		<stop  offset="0" style="stop-color:#342D5C"/>
		<stop  offset="0.1499" style="stop-color:#393061"/>
		<stop  offset="0.1499" style="stop-color:#393061"/>
		<stop  offset="0.1524" style="stop-color:#393061"/>
		<stop  offset="0.5509" style="stop-color:#453870"/>
		<stop  offset="1" style="stop-color:#76689F"/>
	</linearGradient>
	<path class="st0" d="M360,191.3V4c0-2.2-1.8-4-4-4H4C1.8,0,0,1.8,0,4v187.3v-3.7L180,33l180,154.6V191.3L360,191.3z"/>
	
		<linearGradient id="SVGID_2_" gradientUnits="userSpaceOnUse" x1="30.4167" y1="243.7236" x2="30.4167" y2="245.1756" gradientTransform="matrix(360 0 0 -199 -10770 48700)">
		<stop  offset="0" style="stop-color:#101832"/>
		<stop  offset="1" style="stop-color:#452047"/>
	</linearGradient>
	<path class="st1" d="M4,0h352c2.2,0,4,1.8,4,4v195H0V4C0,1.8,1.8,0,4,0z M180,33L0,187.6V199h360v-11.4L180,33z"/>
	
		<linearGradient id="SVGID_3_" gradientUnits="userSpaceOnUse" x1="30.4167" y1="243.4474" x2="30.4167" y2="244.6401" gradientTransform="matrix(360 0 0 -165.0002 -10770 40370.0586)">
		<stop  offset="0" style="stop-color:#2E183B"/>
		<stop  offset="1" style="stop-color:#001832"/>
	</linearGradient>
	<path class="st2" d="M175.5,163.2L0,11.5V4c0-2.2,1.8-4,4-4h352c2.2,0,4,1.8,4,4v7.5L184.5,163.2
		C181.8,165.6,178.2,165.6,175.5,163.2z"/>
</g>
</svg>
